<?xml version="1.0" encoding="UTF-8"?>
<svg xmlns="http://www.w3.org/2000/svg" xmlns:xlink="http://www.w3.org/1999/xlink" width="382pt" height="170pt" viewBox="0 0 382 170" version="1.1">
<g id="surface8">
<path style=" stroke:none;fill-rule:nonzero;fill:rgb(100%,100%,0%);fill-opacity:1;" d="M 5 5 L 10 5 C 10 -1.667969 0 -1.667969 0 5 C 0 11.667969 10 11.667969 10 5 Z M 5 5 "/>
<path style=" stroke:none;fill-rule:nonzero;fill:rgb(50.196078%,100%,50.196078%);fill-opacity:1;" d="M 17 5 L 22 5 C 22 -1.667969 12 -1.667969 12 5 C 12 11.667969 22 11.667969 22 5 Z M 17 5 "/>
<path style=" stroke:none;fill-rule:nonzero;fill:rgb(96.862745%,100%,3.137255%);fill-opacity:1;" d="M 29 5 L 34 5 C 34 -1.667969 24 -1.667969 24 5 C 24 11.667969 34 11.667969 34 5 Z M 29 5 "/>
<path style=" stroke:none;fill-rule:nonzero;fill:rgb(47.058824%,100%,52.941176%);fill-opacity:1;" d="M 41 5 L 46 5 C 46 -1.667969 36 -1.667969 36 5 C 36 11.667969 46 11.667969 46 5 Z M 41 5 "/>
<path style=" stroke:none;fill-rule:nonzero;fill:rgb(93.72549%,100%,6.27451%);fill-opacity:1;" d="M 53 5 L 58 5 C 58 -1.667969 48 -1.667969 48 5 C 48 11.667969 58 11.667969 58 5 Z M 53 5 "/>
<path style=" stroke:none;fill-rule:nonzero;fill:rgb(43.921569%,100%,56.078431%);fill-opacity:1;" d="M 65 5 L 70 5 C 70 -1.667969 60 -1.667969 60 5 C 60 11.667969 70 11.667969 70 5 Z M 65 5 "/>
<path style=" stroke:none;fill-rule:nonzero;fill:rgb(90.588235%,100%,9.411765%);fill-opacity:1;" d="M 77 5 L 82 5 C 82 -1.667969 72 -1.667969 72 5 C 72 11.667969 82 11.667969 82 5 Z M 77 5 "/>
<path style=" stroke:none;fill-rule:nonzero;fill:rgb(40.784314%,100%,59.215686%);fill-opacity:1;" d="M 89 5 L 94 5 C 94 -1.667969 84 -1.667969 84 5 C 84 11.667969 94 11.667969 94 5 Z M 89 5 "/>
<path style=" stroke:none;fill-rule:nonzero;fill:rgb(87.45098%,100%,12.54902%);fill-opacity:1;" d="M 101 5 L 106 5 C 106 -1.667969 96 -1.667969 96 5 C 96 11.667969 106 11.667969 106 5 Z M 101 5 "/>
<path style=" stroke:none;fill-rule:nonzero;fill:rgb(37.647059%,100%,62.352941%);fill-opacity:1;" d="M 113 5 L 118 5 C 118 -1.667969 108 -1.667969 108 5 C 108 11.667969 118 11.667969 118 5 Z M 113 5 "/>
<path style=" stroke:none;fill-rule:nonzero;fill:rgb(84.313725%,100%,15.686275%);fill-opacity:1;" d="M 125 5 L 130 5 C 130 -1.667969 120 -1.667969 120 5 C 120 11.667969 130 11.667969 130 5 Z M 125 5 "/>
<path style=" stroke:none;fill-rule:nonzero;fill:rgb(34.509804%,100%,65.490196%);fill-opacity:1;" d="M 137 5 L 142 5 C 142 -1.667969 132 -1.667969 132 5 C 132 11.667969 142 11.667969 142 5 Z M 137 5 "/>
<path style=" stroke:none;fill-rule:nonzero;fill:rgb(81.176471%,100%,18.823529%);fill-opacity:1;" d="M 149 5 L 154 5 C 154 -1.667969 144 -1.667969 144 5 C 144 11.667969 154 11.667969 154 5 Z M 149 5 "/>
<path style=" stroke:none;fill-rule:nonzero;fill:rgb(31.372549%,100%,68.627451%);fill-opacity:1;" d="M 161 5 L 166 5 C 166 -1.667969 156 -1.667969 156 5 C 156 11.667969 166 11.667969 166 5 Z M 161 5 "/>
<path style=" stroke:none;fill-rule:nonzero;fill:rgb(78.039216%,100%,21.960784%);fill-opacity:1;" d="M 173 5 L 178 5 C 178 -1.667969 168 -1.667969 168 5 C 168 11.667969 178 11.667969 178 5 Z M 173 5 "/>
<path style=" stroke:none;fill-rule:nonzero;fill:rgb(28.235294%,100%,71.764706%);fill-opacity:1;" d="M 185 5 L 190 5 C 190 -1.667969 180 -1.667969 180 5 C 180 11.667969 190 11.667969 190 5 Z M 185 5 "/>
<path style=" stroke:none;fill-rule:nonzero;fill:rgb(74.901961%,100%,25.098039%);fill-opacity:1;" d="M 197 5 L 202 5 C 202 -1.667969 192 -1.667969 192 5 C 192 11.667969 202 11.667969 202 5 Z M 197 5 "/>
<path style=" stroke:none;fill-rule:nonzero;fill:rgb(25.098039%,100%,74.901961%);fill-opacity:1;" d="M 209 5 L 214 5 C 214 -1.667969 204 -1.667969 204 5 C 204 11.667969 214 11.667969 214 5 Z M 209 5 "/>
<path style=" stroke:none;fill-rule:nonzero;fill:rgb(71.764706%,100%,28.235294%);fill-opacity:1;" d="M 221 5 L 226 5 C 226 -1.667969 216 -1.667969 216 5 C 216 11.667969 226 11.667969 226 5 Z M 221 5 "/>
<path style=" stroke:none;fill-rule:nonzero;fill:rgb(21.960784%,100%,78.039216%);fill-opacity:1;" d="M 233 5 L 238 5 C 238 -1.667969 228 -1.667969 228 5 C 228 11.667969 238 11.667969 238 5 Z M 233 5 "/>
<path style=" stroke:none;fill-rule:nonzero;fill:rgb(68.627451%,100%,31.372549%);fill-opacity:1;" d="M 245 5 L 250 5 C 250 -1.667969 240 -1.667969 240 5 C 240 11.667969 250 11.667969 250 5 Z M 245 5 "/>
<path style=" stroke:none;fill-rule:nonzero;fill:rgb(18.823529%,100%,81.176471%);fill-opacity:1;" d="M 257 5 L 262 5 C 262 -1.667969 252 -1.667969 252 5 C 252 11.667969 262 11.667969 262 5 Z M 257 5 "/>
<path style=" stroke:none;fill-rule:nonzero;fill:rgb(65.490196%,100%,34.509804%);fill-opacity:1;" d="M 269 5 L 274 5 C 274 -1.667969 264 -1.667969 264 5 C 264 11.667969 274 11.667969 274 5 Z M 269 5 "/>
<path style=" stroke:none;fill-rule:nonzero;fill:rgb(15.686275%,100%,84.313725%);fill-opacity:1;" d="M 281 5 L 286 5 C 286 -1.667969 276 -1.667969 276 5 C 276 11.667969 286 11.667969 286 5 Z M 281 5 "/>
<path style=" stroke:none;fill-rule:nonzero;fill:rgb(62.352941%,100%,37.647059%);fill-opacity:1;" d="M 293 5 L 298 5 C 298 -1.667969 288 -1.667969 288 5 C 288 11.667969 298 11.667969 298 5 Z M 293 5 "/>
<path style=" stroke:none;fill-rule:nonzero;fill:rgb(12.54902%,100%,87.45098%);fill-opacity:1;" d="M 305 5 L 310 5 C 310 -1.667969 300 -1.667969 300 5 C 300 11.667969 310 11.667969 310 5 Z M 305 5 "/>
<path style=" stroke:none;fill-rule:nonzero;fill:rgb(59.215686%,100%,40.784314%);fill-opacity:1;" d="M 317 5 L 322 5 C 322 -1.667969 312 -1.667969 312 5 C 312 11.667969 322 11.667969 322 5 Z M 317 5 "/>
<path style=" stroke:none;fill-rule:nonzero;fill:rgb(9.411765%,100%,90.588235%);fill-opacity:1;" d="M 329 5 L 334 5 C 334 -1.667969 324 -1.667969 324 5 C 324 11.667969 334 11.667969 334 5 Z M 329 5 "/>
<path style=" stroke:none;fill-rule:nonzero;fill:rgb(56.078431%,100%,43.921569%);fill-opacity:1;" d="M 341 5 L 346 5 C 346 -1.667969 336 -1.667969 336 5 C 336 11.667969 346 11.667969 346 5 Z M 341 5 "/>
<path style=" stroke:none;fill-rule:nonzero;fill:rgb(6.27451%,100%,93.72549%);fill-opacity:1;" d="M 353 5 L 358 5 C 358 -1.667969 348 -1.667969 348 5 C 348 11.667969 358 11.667969 358 5 Z M 353 5 "/>
<path style=" stroke:none;fill-rule:nonzero;fill:rgb(52.941176%,100%,47.058824%);fill-opacity:1;" d="M 365 5 L 370 5 C 370 -1.667969 360 -1.667969 360 5 C 360 11.667969 370 11.667969 370 5 Z M 365 5 "/>
<path style=" stroke:none;fill-rule:nonzero;fill:rgb(3.137255%,100%,96.862745%);fill-opacity:1;" d="M 377 5 L 382 5 C 382 -1.667969 372 -1.667969 372 5 C 372 11.667969 382 11.667969 382 5 Z M 377 5 "/>
<path style=" stroke:none;fill-rule:nonzero;fill:rgb(100%,100%,0%);fill-opacity:1;" d="M 5 165 L 10 165 C 10 158.332031 0 158.332031 0 165 C 0 171.667969 10 171.667969 10 165 Z M 5 165 "/>
<path style=" stroke:none;fill-rule:nonzero;fill:rgb(96.862745%,100%,3.137255%);fill-opacity:1;" d="M 17 165 L 22 165 C 22 158.332031 12 158.332031 12 165 C 12 171.667969 22 171.667969 22 165 Z M 17 165 "/>
<path style=" stroke:none;fill-rule:nonzero;fill:rgb(93.72549%,100%,6.27451%);fill-opacity:1;" d="M 29 165 L 34 165 C 34 158.332031 24 158.332031 24 165 C 24 171.667969 34 171.667969 34 165 Z M 29 165 "/>
<path style=" stroke:none;fill-rule:nonzero;fill:rgb(90.588235%,100%,9.411765%);fill-opacity:1;" d="M 41 165 L 46 165 C 46 158.332031 36 158.332031 36 165 C 36 171.667969 46 171.667969 46 165 Z M 41 165 "/>
<path style=" stroke:none;fill-rule:nonzero;fill:rgb(87.45098%,100%,12.54902%);fill-opacity:1;" d="M 53 165 L 58 165 C 58 158.332031 48 158.332031 48 165 C 48 171.667969 58 171.667969 58 165 Z M 53 165 "/>
<path style=" stroke:none;fill-rule:nonzero;fill:rgb(84.313725%,100%,15.686275%);fill-opacity:1;" d="M 65 165 L 70 165 C 70 158.332031 60 158.332031 60 165 C 60 171.667969 70 171.667969 70 165 Z M 65 165 "/>
<path style=" stroke:none;fill-rule:nonzero;fill:rgb(81.176471%,100%,18.823529%);fill-opacity:1;" d="M 77 165 L 82 165 C 82 158.332031 72 158.332031 72 165 C 72 171.667969 82 171.667969 82 165 Z M 77 165 "/>
<path style=" stroke:none;fill-rule:nonzero;fill:rgb(78.039216%,100%,21.960784%);fill-opacity:1;" d="M 89 165 L 94 165 C 94 158.332031 84 158.332031 84 165 C 84 171.667969 94 171.667969 94 165 Z M 89 165 "/>
<path style=" stroke:none;fill-rule:nonzero;fill:rgb(74.901961%,100%,25.098039%);fill-opacity:1;" d="M 101 165 L 106 165 C 106 158.332031 96 158.332031 96 165 C 96 171.667969 106 171.667969 106 165 Z M 101 165 "/>
<path style=" stroke:none;fill-rule:nonzero;fill:rgb(71.764706%,100%,28.235294%);fill-opacity:1;" d="M 113 165 L 118 165 C 118 158.332031 108 158.332031 108 165 C 108 171.667969 118 171.667969 118 165 Z M 113 165 "/>
<path style=" stroke:none;fill-rule:nonzero;fill:rgb(68.627451%,100%,31.372549%);fill-opacity:1;" d="M 125 165 L 130 165 C 130 158.332031 120 158.332031 120 165 C 120 171.667969 130 171.667969 130 165 Z M 125 165 "/>
<path style=" stroke:none;fill-rule:nonzero;fill:rgb(65.490196%,100%,34.509804%);fill-opacity:1;" d="M 137 165 L 142 165 C 142 158.332031 132 158.332031 132 165 C 132 171.667969 142 171.667969 142 165 Z M 137 165 "/>
<path style=" stroke:none;fill-rule:nonzero;fill:rgb(62.352941%,100%,37.647059%);fill-opacity:1;" d="M 149 165 L 154 165 C 154 158.332031 144 158.332031 144 165 C 144 171.667969 154 171.667969 154 165 Z M 149 165 "/>
<path style=" stroke:none;fill-rule:nonzero;fill:rgb(59.215686%,100%,40.784314%);fill-opacity:1;" d="M 161 165 L 166 165 C 166 158.332031 156 158.332031 156 165 C 156 171.667969 166 171.667969 166 165 Z M 161 165 "/>
<path style=" stroke:none;fill-rule:nonzero;fill:rgb(56.078431%,100%,43.921569%);fill-opacity:1;" d="M 173 165 L 178 165 C 178 158.332031 168 158.332031 168 165 C 168 171.667969 178 171.667969 178 165 Z M 173 165 "/>
<path style=" stroke:none;fill-rule:nonzero;fill:rgb(52.941176%,100%,47.058824%);fill-opacity:1;" d="M 185 165 L 190 165 C 190 158.332031 180 158.332031 180 165 C 180 171.667969 190 171.667969 190 165 Z M 185 165 "/>
<path style=" stroke:none;fill-rule:nonzero;fill:rgb(50.196078%,100%,50.196078%);fill-opacity:1;" d="M 197 165 L 202 165 C 202 158.332031 192 158.332031 192 165 C 192 171.667969 202 171.667969 202 165 Z M 197 165 "/>
<path style=" stroke:none;fill-rule:nonzero;fill:rgb(47.058824%,100%,52.941176%);fill-opacity:1;" d="M 209 165 L 214 165 C 214 158.332031 204 158.332031 204 165 C 204 171.667969 214 171.667969 214 165 Z M 209 165 "/>
<path style=" stroke:none;fill-rule:nonzero;fill:rgb(43.921569%,100%,56.078431%);fill-opacity:1;" d="M 221 165 L 226 165 C 226 158.332031 216 158.332031 216 165 C 216 171.667969 226 171.667969 226 165 Z M 221 165 "/>
<path style=" stroke:none;fill-rule:nonzero;fill:rgb(40.784314%,100%,59.215686%);fill-opacity:1;" d="M 233 165 L 238 165 C 238 158.332031 228 158.332031 228 165 C 228 171.667969 238 171.667969 238 165 Z M 233 165 "/>
<path style=" stroke:none;fill-rule:nonzero;fill:rgb(37.647059%,100%,62.352941%);fill-opacity:1;" d="M 245 165 L 250 165 C 250 158.332031 240 158.332031 240 165 C 240 171.667969 250 171.667969 250 165 Z M 245 165 "/>
<path style=" stroke:none;fill-rule:nonzero;fill:rgb(34.509804%,100%,65.490196%);fill-opacity:1;" d="M 257 165 L 262 165 C 262 158.332031 252 158.332031 252 165 C 252 171.667969 262 171.667969 262 165 Z M 257 165 "/>
<path style=" stroke:none;fill-rule:nonzero;fill:rgb(31.372549%,100%,68.627451%);fill-opacity:1;" d="M 269 165 L 274 165 C 274 158.332031 264 158.332031 264 165 C 264 171.667969 274 171.667969 274 165 Z M 269 165 "/>
<path style=" stroke:none;fill-rule:nonzero;fill:rgb(28.235294%,100%,71.764706%);fill-opacity:1;" d="M 281 165 L 286 165 C 286 158.332031 276 158.332031 276 165 C 276 171.667969 286 171.667969 286 165 Z M 281 165 "/>
<path style=" stroke:none;fill-rule:nonzero;fill:rgb(25.098039%,100%,74.901961%);fill-opacity:1;" d="M 293 165 L 298 165 C 298 158.332031 288 158.332031 288 165 C 288 171.667969 298 171.667969 298 165 Z M 293 165 "/>
<path style=" stroke:none;fill-rule:nonzero;fill:rgb(21.960784%,100%,78.039216%);fill-opacity:1;" d="M 305 165 L 310 165 C 310 158.332031 300 158.332031 300 165 C 300 171.667969 310 171.667969 310 165 Z M 305 165 "/>
<path style=" stroke:none;fill-rule:nonzero;fill:rgb(18.823529%,100%,81.176471%);fill-opacity:1;" d="M 317 165 L 322 165 C 322 158.332031 312 158.332031 312 165 C 312 171.667969 322 171.667969 322 165 Z M 317 165 "/>
<path style=" stroke:none;fill-rule:nonzero;fill:rgb(15.686275%,100%,84.313725%);fill-opacity:1;" d="M 329 165 L 334 165 C 334 158.332031 324 158.332031 324 165 C 324 171.667969 334 171.667969 334 165 Z M 329 165 "/>
<path style=" stroke:none;fill-rule:nonzero;fill:rgb(12.54902%,100%,87.45098%);fill-opacity:1;" d="M 341 165 L 346 165 C 346 158.332031 336 158.332031 336 165 C 336 171.667969 346 171.667969 346 165 Z M 341 165 "/>
<path style=" stroke:none;fill-rule:nonzero;fill:rgb(9.411765%,100%,90.588235%);fill-opacity:1;" d="M 353 165 L 358 165 C 358 158.332031 348 158.332031 348 165 C 348 171.667969 358 171.667969 358 165 Z M 353 165 "/>
<path style=" stroke:none;fill-rule:nonzero;fill:rgb(6.27451%,100%,93.72549%);fill-opacity:1;" d="M 365 165 L 370 165 C 370 158.332031 360 158.332031 360 165 C 360 171.667969 370 171.667969 370 165 Z M 365 165 "/>
<path style=" stroke:none;fill-rule:nonzero;fill:rgb(3.137255%,100%,96.862745%);fill-opacity:1;" d="M 377 165 L 382 165 C 382 158.332031 372 158.332031 372 165 C 372 171.667969 382 171.667969 382 165 Z M 377 165 "/>
<path style="fill:none;stroke-width:1;stroke-linecap:round;stroke-linejoin:round;stroke:rgb(3.137255%,100%,96.862745%);stroke-opacity:1;stroke-miterlimit:10;" d="M 377.5 160.5 C 377.5 122.5 377.5 57.5 377.5 20.5 "/>
<path style="fill:none;stroke-width:1;stroke-linecap:round;stroke-linejoin:round;stroke:rgb(3.137255%,100%,96.862745%);stroke-opacity:1;stroke-miterlimit:10;" d="M 377.5 20.5 L 377.5 15.5 "/>
<path style="fill-rule:evenodd;fill:rgb(3.137255%,100%,96.862745%);fill-opacity:1;stroke-width:1;stroke-linecap:round;stroke-linejoin:round;stroke:rgb(3.137255%,100%,96.862745%);stroke-opacity:1;stroke-miterlimit:10;" d="M 377.5 10.5 L 382.5 20.5 L 377.5 17.5 L 372.5 20.5 Z M 377.5 10.5 "/>
<path style="fill:none;stroke-width:1;stroke-linecap:round;stroke-linejoin:round;stroke:rgb(6.27451%,100%,93.72549%);stroke-opacity:1;stroke-miterlimit:10;" d="M 365.5 160.5 C 365.5 122.5 353.5 57.5 353.5 20.5 "/>
<path style="fill:none;stroke-width:1;stroke-linecap:round;stroke-linejoin:round;stroke:rgb(6.27451%,100%,93.72549%);stroke-opacity:1;stroke-miterlimit:10;" d="M 353.5 20.5 L 353.5 15.5 "/>
<path style="fill-rule:evenodd;fill:rgb(6.27451%,100%,93.72549%);fill-opacity:1;stroke-width:1;stroke-linecap:round;stroke-linejoin:round;stroke:rgb(6.27451%,100%,93.72549%);stroke-opacity:1;stroke-miterlimit:10;" d="M 353.5 10.5 L 358.5 20.5 L 353.5 17.5 L 348.5 20.5 Z M 353.5 10.5 "/>
<path style="fill:none;stroke-width:1;stroke-linecap:round;stroke-linejoin:round;stroke:rgb(9.411765%,100%,90.588235%);stroke-opacity:1;stroke-miterlimit:10;" d="M 353.5 160.5 C 353.5 122.5 329.5 57.5 329.5 20.5 "/>
<path style="fill:none;stroke-width:1;stroke-linecap:round;stroke-linejoin:round;stroke:rgb(9.411765%,100%,90.588235%);stroke-opacity:1;stroke-miterlimit:10;" d="M 329.5 20.5 L 329.5 15.5 "/>
<path style="fill-rule:evenodd;fill:rgb(9.411765%,100%,90.588235%);fill-opacity:1;stroke-width:1;stroke-linecap:round;stroke-linejoin:round;stroke:rgb(9.411765%,100%,90.588235%);stroke-opacity:1;stroke-miterlimit:10;" d="M 329.5 10.5 L 334.5 20.5 L 329.5 17.5 L 324.5 20.5 Z M 329.5 10.5 "/>
<path style="fill:none;stroke-width:1;stroke-linecap:round;stroke-linejoin:round;stroke:rgb(12.54902%,100%,87.45098%);stroke-opacity:1;stroke-miterlimit:10;" d="M 341.5 160.5 C 341.5 121.5 305.5 58.5 305.5 20.5 "/>
<path style="fill:none;stroke-width:1;stroke-linecap:round;stroke-linejoin:round;stroke:rgb(12.54902%,100%,87.45098%);stroke-opacity:1;stroke-miterlimit:10;" d="M 305.5 20.5 L 305.5 15.5 "/>
<path style="fill-rule:evenodd;fill:rgb(12.54902%,100%,87.45098%);fill-opacity:1;stroke-width:1;stroke-linecap:round;stroke-linejoin:round;stroke:rgb(12.54902%,100%,87.45098%);stroke-opacity:1;stroke-miterlimit:10;" d="M 305.5 10.5 L 310.5 20.5 L 305.5 17.5 L 300.5 20.5 Z M 305.5 10.5 "/>
<path style="fill:none;stroke-width:1;stroke-linecap:round;stroke-linejoin:round;stroke:rgb(15.686275%,100%,84.313725%);stroke-opacity:1;stroke-miterlimit:10;" d="M 329.5 160.5 C 329.5 120.5 281.5 59.5 281.5 20.5 "/>
<path style="fill:none;stroke-width:1;stroke-linecap:round;stroke-linejoin:round;stroke:rgb(15.686275%,100%,84.313725%);stroke-opacity:1;stroke-miterlimit:10;" d="M 281.5 20.5 L 281.5 15.5 "/>
<path style="fill-rule:evenodd;fill:rgb(15.686275%,100%,84.313725%);fill-opacity:1;stroke-width:1;stroke-linecap:round;stroke-linejoin:round;stroke:rgb(15.686275%,100%,84.313725%);stroke-opacity:1;stroke-miterlimit:10;" d="M 281.5 10.5 L 286.5 20.5 L 281.5 17.5 L 276.5 20.5 Z M 281.5 10.5 "/>
<path style="fill:none;stroke-width:1;stroke-linecap:round;stroke-linejoin:round;stroke:rgb(18.823529%,100%,81.176471%);stroke-opacity:1;stroke-miterlimit:10;" d="M 317.5 160.5 C 317.5 119.5 257.5 60.5 257.5 20.5 "/>
<path style="fill:none;stroke-width:1;stroke-linecap:round;stroke-linejoin:round;stroke:rgb(18.823529%,100%,81.176471%);stroke-opacity:1;stroke-miterlimit:10;" d="M 257.5 20.5 L 257.5 15.5 "/>
<path style="fill-rule:evenodd;fill:rgb(18.823529%,100%,81.176471%);fill-opacity:1;stroke-width:1;stroke-linecap:round;stroke-linejoin:round;stroke:rgb(18.823529%,100%,81.176471%);stroke-opacity:1;stroke-miterlimit:10;" d="M 257.5 10.5 L 262.5 20.5 L 257.5 17.5 L 252.5 20.5 Z M 257.5 10.5 "/>
<path style="fill:none;stroke-width:1;stroke-linecap:round;stroke-linejoin:round;stroke:rgb(21.960784%,100%,78.039216%);stroke-opacity:1;stroke-miterlimit:10;" d="M 305.5 160.5 C 305.5 118.5 233.5 61.5 233.5 20.5 "/>
<path style="fill:none;stroke-width:1;stroke-linecap:round;stroke-linejoin:round;stroke:rgb(21.960784%,100%,78.039216%);stroke-opacity:1;stroke-miterlimit:10;" d="M 233.5 20.5 L 233.5 15.5 "/>
<path style="fill-rule:evenodd;fill:rgb(21.960784%,100%,78.039216%);fill-opacity:1;stroke-width:1;stroke-linecap:round;stroke-linejoin:round;stroke:rgb(21.960784%,100%,78.039216%);stroke-opacity:1;stroke-miterlimit:10;" d="M 233.5 10.5 L 238.5 20.5 L 233.5 17.5 L 228.5 20.5 Z M 233.5 10.5 "/>
<path style="fill:none;stroke-width:1;stroke-linecap:round;stroke-linejoin:round;stroke:rgb(25.098039%,100%,74.901961%);stroke-opacity:1;stroke-miterlimit:10;" d="M 293.5 160.5 C 293.5 117.5 209.5 62.5 209.5 20.5 "/>
<path style="fill:none;stroke-width:1;stroke-linecap:round;stroke-linejoin:round;stroke:rgb(25.098039%,100%,74.901961%);stroke-opacity:1;stroke-miterlimit:10;" d="M 209.5 20.5 L 209.5 15.5 "/>
<path style="fill-rule:evenodd;fill:rgb(25.098039%,100%,74.901961%);fill-opacity:1;stroke-width:1;stroke-linecap:round;stroke-linejoin:round;stroke:rgb(25.098039%,100%,74.901961%);stroke-opacity:1;stroke-miterlimit:10;" d="M 209.5 10.5 L 214.5 20.5 L 209.5 17.5 L 204.5 20.5 Z M 209.5 10.5 "/>
<path style="fill:none;stroke-width:1;stroke-linecap:round;stroke-linejoin:round;stroke:rgb(28.235294%,100%,71.764706%);stroke-opacity:1;stroke-miterlimit:10;" d="M 281.5 160.5 C 281.5 115.5 185.5 64.5 185.5 20.5 "/>
<path style="fill:none;stroke-width:1;stroke-linecap:round;stroke-linejoin:round;stroke:rgb(28.235294%,100%,71.764706%);stroke-opacity:1;stroke-miterlimit:10;" d="M 185.5 20.5 L 185.5 15.5 "/>
<path style="fill-rule:evenodd;fill:rgb(28.235294%,100%,71.764706%);fill-opacity:1;stroke-width:1;stroke-linecap:round;stroke-linejoin:round;stroke:rgb(28.235294%,100%,71.764706%);stroke-opacity:1;stroke-miterlimit:10;" d="M 185.5 10.5 L 190.5 20.5 L 185.5 17.5 L 180.5 20.5 Z M 185.5 10.5 "/>
<path style="fill:none;stroke-width:1;stroke-linecap:round;stroke-linejoin:round;stroke:rgb(31.372549%,100%,68.627451%);stroke-opacity:1;stroke-miterlimit:10;" d="M 269.5 160.5 C 269.5 113.5 161.5 66.5 161.5 20.5 "/>
<path style="fill:none;stroke-width:1;stroke-linecap:round;stroke-linejoin:round;stroke:rgb(31.372549%,100%,68.627451%);stroke-opacity:1;stroke-miterlimit:10;" d="M 161.5 20.5 L 161.5 15.5 "/>
<path style="fill-rule:evenodd;fill:rgb(31.372549%,100%,68.627451%);fill-opacity:1;stroke-width:1;stroke-linecap:round;stroke-linejoin:round;stroke:rgb(31.372549%,100%,68.627451%);stroke-opacity:1;stroke-miterlimit:10;" d="M 161.5 10.5 L 166.5 20.5 L 161.5 17.5 L 156.5 20.5 Z M 161.5 10.5 "/>
<path style="fill:none;stroke-width:1;stroke-linecap:round;stroke-linejoin:round;stroke:rgb(34.509804%,100%,65.490196%);stroke-opacity:1;stroke-miterlimit:10;" d="M 257.5 160.5 C 257.5 111.5 137.5 68.5 137.5 20.5 "/>
<path style="fill:none;stroke-width:1;stroke-linecap:round;stroke-linejoin:round;stroke:rgb(34.509804%,100%,65.490196%);stroke-opacity:1;stroke-miterlimit:10;" d="M 137.5 20.5 L 137.5 15.5 "/>
<path style="fill-rule:evenodd;fill:rgb(34.509804%,100%,65.490196%);fill-opacity:1;stroke-width:1;stroke-linecap:round;stroke-linejoin:round;stroke:rgb(34.509804%,100%,65.490196%);stroke-opacity:1;stroke-miterlimit:10;" d="M 137.5 10.5 L 142.5 20.5 L 137.5 17.5 L 132.5 20.5 Z M 137.5 10.5 "/>
<path style="fill:none;stroke-width:1;stroke-linecap:round;stroke-linejoin:round;stroke:rgb(37.647059%,100%,62.352941%);stroke-opacity:1;stroke-miterlimit:10;" d="M 245.5 160.5 C 245.5 110.5 113.5 69.5 113.5 20.5 "/>
<path style="fill:none;stroke-width:1;stroke-linecap:round;stroke-linejoin:round;stroke:rgb(37.647059%,100%,62.352941%);stroke-opacity:1;stroke-miterlimit:10;" d="M 113.5 20.5 L 113.5 15.5 "/>
<path style="fill-rule:evenodd;fill:rgb(37.647059%,100%,62.352941%);fill-opacity:1;stroke-width:1;stroke-linecap:round;stroke-linejoin:round;stroke:rgb(37.647059%,100%,62.352941%);stroke-opacity:1;stroke-miterlimit:10;" d="M 113.5 10.5 L 118.5 20.5 L 113.5 17.5 L 108.5 20.5 Z M 113.5 10.5 "/>
<path style="fill:none;stroke-width:1;stroke-linecap:round;stroke-linejoin:round;stroke:rgb(40.784314%,100%,59.215686%);stroke-opacity:1;stroke-miterlimit:10;" d="M 233.5 160.5 C 233.5 108.5 89.5 71.5 89.5 20.5 "/>
<path style="fill:none;stroke-width:1;stroke-linecap:round;stroke-linejoin:round;stroke:rgb(40.784314%,100%,59.215686%);stroke-opacity:1;stroke-miterlimit:10;" d="M 89.5 20.5 L 89.5 15.5 "/>
<path style="fill-rule:evenodd;fill:rgb(40.784314%,100%,59.215686%);fill-opacity:1;stroke-width:1;stroke-linecap:round;stroke-linejoin:round;stroke:rgb(40.784314%,100%,59.215686%);stroke-opacity:1;stroke-miterlimit:10;" d="M 89.5 10.5 L 94.5 20.5 L 89.5 17.5 L 84.5 20.5 Z M 89.5 10.5 "/>
<path style="fill:none;stroke-width:1;stroke-linecap:round;stroke-linejoin:round;stroke:rgb(43.921569%,100%,56.078431%);stroke-opacity:1;stroke-miterlimit:10;" d="M 221.5 160.5 C 221.5 105.5 65.5 74.5 65.5 20.5 "/>
<path style="fill:none;stroke-width:1;stroke-linecap:round;stroke-linejoin:round;stroke:rgb(43.921569%,100%,56.078431%);stroke-opacity:1;stroke-miterlimit:10;" d="M 65.5 20.5 L 65.5 15.5 "/>
<path style="fill-rule:evenodd;fill:rgb(43.921569%,100%,56.078431%);fill-opacity:1;stroke-width:1;stroke-linecap:round;stroke-linejoin:round;stroke:rgb(43.921569%,100%,56.078431%);stroke-opacity:1;stroke-miterlimit:10;" d="M 65.5 10.5 L 70.5 20.5 L 65.5 17.5 L 60.5 20.5 Z M 65.5 10.5 "/>
<path style="fill:none;stroke-width:1;stroke-linecap:round;stroke-linejoin:round;stroke:rgb(47.058824%,100%,52.941176%);stroke-opacity:1;stroke-miterlimit:10;" d="M 209.5 160.5 C 209.5 103.5 41.5 76.5 41.5 20.5 "/>
<path style="fill:none;stroke-width:1;stroke-linecap:round;stroke-linejoin:round;stroke:rgb(47.058824%,100%,52.941176%);stroke-opacity:1;stroke-miterlimit:10;" d="M 41.5 20.5 L 41.5 15.5 "/>
<path style="fill-rule:evenodd;fill:rgb(47.058824%,100%,52.941176%);fill-opacity:1;stroke-width:1;stroke-linecap:round;stroke-linejoin:round;stroke:rgb(47.058824%,100%,52.941176%);stroke-opacity:1;stroke-miterlimit:10;" d="M 41.5 10.5 L 46.5 20.5 L 41.5 17.5 L 36.5 20.5 Z M 41.5 10.5 "/>
<path style="fill:none;stroke-width:1;stroke-linecap:round;stroke-linejoin:round;stroke:rgb(50.196078%,100%,50.196078%);stroke-opacity:1;stroke-miterlimit:10;" d="M 197.5 160.5 C 197.5 101.5 16.5 78.5 17.5 20.5 "/>
<path style="fill:none;stroke-width:1;stroke-linecap:round;stroke-linejoin:round;stroke:rgb(50.196078%,100%,50.196078%);stroke-opacity:1;stroke-miterlimit:10;" d="M 17.5 20.5 L 17.5 15.5 "/>
<path style="fill-rule:evenodd;fill:rgb(50.196078%,100%,50.196078%);fill-opacity:1;stroke-width:1;stroke-linecap:round;stroke-linejoin:round;stroke:rgb(50.196078%,100%,50.196078%);stroke-opacity:1;stroke-miterlimit:10;" d="M 17.5 10.5 L 22.5 20.5 L 17.5 17.5 L 12.5 20.5 Z M 17.5 10.5 "/>
<path style="fill:none;stroke-width:1;stroke-linecap:round;stroke-linejoin:round;stroke:rgb(52.941176%,100%,47.058824%);stroke-opacity:1;stroke-miterlimit:10;" d="M 185.5 160.5 C 185.5 101.5 365.5 78.5 365.5 20.5 "/>
<path style="fill:none;stroke-width:1;stroke-linecap:round;stroke-linejoin:round;stroke:rgb(52.941176%,100%,47.058824%);stroke-opacity:1;stroke-miterlimit:10;" d="M 365.5 20.5 L 365.5 15.5 "/>
<path style="fill-rule:evenodd;fill:rgb(52.941176%,100%,47.058824%);fill-opacity:1;stroke-width:1;stroke-linecap:round;stroke-linejoin:round;stroke:rgb(52.941176%,100%,47.058824%);stroke-opacity:1;stroke-miterlimit:10;" d="M 365.5 10.5 L 370.5 20.5 L 365.5 17.5 L 360.5 20.5 Z M 365.5 10.5 "/>
<path style="fill:none;stroke-width:1;stroke-linecap:round;stroke-linejoin:round;stroke:rgb(56.078431%,100%,43.921569%);stroke-opacity:1;stroke-miterlimit:10;" d="M 173.5 160.5 C 173.5 103.5 341.5 76.5 341.5 20.5 "/>
<path style="fill:none;stroke-width:1;stroke-linecap:round;stroke-linejoin:round;stroke:rgb(56.078431%,100%,43.921569%);stroke-opacity:1;stroke-miterlimit:10;" d="M 341.5 20.5 L 341.5 15.5 "/>
<path style="fill-rule:evenodd;fill:rgb(56.078431%,100%,43.921569%);fill-opacity:1;stroke-width:1;stroke-linecap:round;stroke-linejoin:round;stroke:rgb(56.078431%,100%,43.921569%);stroke-opacity:1;stroke-miterlimit:10;" d="M 341.5 10.5 L 346.5 20.5 L 341.5 17.5 L 336.5 20.5 Z M 341.5 10.5 "/>
<path style="fill:none;stroke-width:1;stroke-linecap:round;stroke-linejoin:round;stroke:rgb(59.215686%,100%,40.784314%);stroke-opacity:1;stroke-miterlimit:10;" d="M 161.5 160.5 C 161.5 105.5 317.5 74.5 317.5 20.5 "/>
<path style="fill:none;stroke-width:1;stroke-linecap:round;stroke-linejoin:round;stroke:rgb(59.215686%,100%,40.784314%);stroke-opacity:1;stroke-miterlimit:10;" d="M 317.5 20.5 L 317.5 15.5 "/>
<path style="fill-rule:evenodd;fill:rgb(59.215686%,100%,40.784314%);fill-opacity:1;stroke-width:1;stroke-linecap:round;stroke-linejoin:round;stroke:rgb(59.215686%,100%,40.784314%);stroke-opacity:1;stroke-miterlimit:10;" d="M 317.5 10.5 L 322.5 20.5 L 317.5 17.5 L 312.5 20.5 Z M 317.5 10.5 "/>
<path style="fill:none;stroke-width:1;stroke-linecap:round;stroke-linejoin:round;stroke:rgb(62.352941%,100%,37.647059%);stroke-opacity:1;stroke-miterlimit:10;" d="M 149.5 160.5 C 149.5 108.5 293.5 71.5 293.5 20.5 "/>
<path style="fill:none;stroke-width:1;stroke-linecap:round;stroke-linejoin:round;stroke:rgb(62.352941%,100%,37.647059%);stroke-opacity:1;stroke-miterlimit:10;" d="M 293.5 20.5 L 293.5 15.5 "/>
<path style="fill-rule:evenodd;fill:rgb(62.352941%,100%,37.647059%);fill-opacity:1;stroke-width:1;stroke-linecap:round;stroke-linejoin:round;stroke:rgb(62.352941%,100%,37.647059%);stroke-opacity:1;stroke-miterlimit:10;" d="M 293.5 10.5 L 298.5 20.5 L 293.5 17.5 L 288.5 20.5 Z M 293.5 10.5 "/>
<path style="fill:none;stroke-width:1;stroke-linecap:round;stroke-linejoin:round;stroke:rgb(65.490196%,100%,34.509804%);stroke-opacity:1;stroke-miterlimit:10;" d="M 137.5 160.5 C 137.5 110.5 269.5 69.5 269.5 20.5 "/>
<path style="fill:none;stroke-width:1;stroke-linecap:round;stroke-linejoin:round;stroke:rgb(65.490196%,100%,34.509804%);stroke-opacity:1;stroke-miterlimit:10;" d="M 269.5 20.5 L 269.5 15.5 "/>
<path style="fill-rule:evenodd;fill:rgb(65.490196%,100%,34.509804%);fill-opacity:1;stroke-width:1;stroke-linecap:round;stroke-linejoin:round;stroke:rgb(65.490196%,100%,34.509804%);stroke-opacity:1;stroke-miterlimit:10;" d="M 269.5 10.5 L 274.5 20.5 L 269.5 17.5 L 264.5 20.5 Z M 269.5 10.5 "/>
<path style="fill:none;stroke-width:1;stroke-linecap:round;stroke-linejoin:round;stroke:rgb(68.627451%,100%,31.372549%);stroke-opacity:1;stroke-miterlimit:10;" d="M 125.5 160.5 C 125.5 111.5 245.5 68.5 245.5 20.5 "/>
<path style="fill:none;stroke-width:1;stroke-linecap:round;stroke-linejoin:round;stroke:rgb(68.627451%,100%,31.372549%);stroke-opacity:1;stroke-miterlimit:10;" d="M 245.5 20.5 L 245.5 15.5 "/>
<path style="fill-rule:evenodd;fill:rgb(68.627451%,100%,31.372549%);fill-opacity:1;stroke-width:1;stroke-linecap:round;stroke-linejoin:round;stroke:rgb(68.627451%,100%,31.372549%);stroke-opacity:1;stroke-miterlimit:10;" d="M 245.5 10.5 L 250.5 20.5 L 245.5 17.5 L 240.5 20.5 Z M 245.5 10.5 "/>
<path style="fill:none;stroke-width:1;stroke-linecap:round;stroke-linejoin:round;stroke:rgb(71.764706%,100%,28.235294%);stroke-opacity:1;stroke-miterlimit:10;" d="M 113.5 160.5 C 113.5 113.5 221.5 66.5 221.5 20.5 "/>
<path style="fill:none;stroke-width:1;stroke-linecap:round;stroke-linejoin:round;stroke:rgb(71.764706%,100%,28.235294%);stroke-opacity:1;stroke-miterlimit:10;" d="M 221.5 20.5 L 221.5 15.5 "/>
<path style="fill-rule:evenodd;fill:rgb(71.764706%,100%,28.235294%);fill-opacity:1;stroke-width:1;stroke-linecap:round;stroke-linejoin:round;stroke:rgb(71.764706%,100%,28.235294%);stroke-opacity:1;stroke-miterlimit:10;" d="M 221.5 10.5 L 226.5 20.5 L 221.5 17.5 L 216.5 20.5 Z M 221.5 10.5 "/>
<path style="fill:none;stroke-width:1;stroke-linecap:round;stroke-linejoin:round;stroke:rgb(74.901961%,100%,25.098039%);stroke-opacity:1;stroke-miterlimit:10;" d="M 101.5 160.5 C 101.5 115.5 197.5 64.5 197.5 20.5 "/>
<path style="fill:none;stroke-width:1;stroke-linecap:round;stroke-linejoin:round;stroke:rgb(74.901961%,100%,25.098039%);stroke-opacity:1;stroke-miterlimit:10;" d="M 197.5 20.5 L 197.5 15.5 "/>
<path style="fill-rule:evenodd;fill:rgb(74.901961%,100%,25.098039%);fill-opacity:1;stroke-width:1;stroke-linecap:round;stroke-linejoin:round;stroke:rgb(74.901961%,100%,25.098039%);stroke-opacity:1;stroke-miterlimit:10;" d="M 197.5 10.5 L 202.5 20.5 L 197.5 17.5 L 192.5 20.5 Z M 197.5 10.5 "/>
<path style="fill:none;stroke-width:1;stroke-linecap:round;stroke-linejoin:round;stroke:rgb(78.039216%,100%,21.960784%);stroke-opacity:1;stroke-miterlimit:10;" d="M 89.5 160.5 C 89.5 117.5 173.5 62.5 173.5 20.5 "/>
<path style="fill:none;stroke-width:1;stroke-linecap:round;stroke-linejoin:round;stroke:rgb(78.039216%,100%,21.960784%);stroke-opacity:1;stroke-miterlimit:10;" d="M 173.5 20.5 L 173.5 15.5 "/>
<path style="fill-rule:evenodd;fill:rgb(78.039216%,100%,21.960784%);fill-opacity:1;stroke-width:1;stroke-linecap:round;stroke-linejoin:round;stroke:rgb(78.039216%,100%,21.960784%);stroke-opacity:1;stroke-miterlimit:10;" d="M 173.5 10.5 L 178.5 20.5 L 173.5 17.5 L 168.5 20.5 Z M 173.5 10.5 "/>
<path style="fill:none;stroke-width:1;stroke-linecap:round;stroke-linejoin:round;stroke:rgb(81.176471%,100%,18.823529%);stroke-opacity:1;stroke-miterlimit:10;" d="M 77.5 160.5 C 77.5 118.5 149.5 61.5 149.5 20.5 "/>
<path style="fill:none;stroke-width:1;stroke-linecap:round;stroke-linejoin:round;stroke:rgb(81.176471%,100%,18.823529%);stroke-opacity:1;stroke-miterlimit:10;" d="M 149.5 20.5 L 149.5 15.5 "/>
<path style="fill-rule:evenodd;fill:rgb(81.176471%,100%,18.823529%);fill-opacity:1;stroke-width:1;stroke-linecap:round;stroke-linejoin:round;stroke:rgb(81.176471%,100%,18.823529%);stroke-opacity:1;stroke-miterlimit:10;" d="M 149.5 10.5 L 154.5 20.5 L 149.5 17.5 L 144.5 20.5 Z M 149.5 10.5 "/>
<path style="fill:none;stroke-width:1;stroke-linecap:round;stroke-linejoin:round;stroke:rgb(84.313725%,100%,15.686275%);stroke-opacity:1;stroke-miterlimit:10;" d="M 65.5 160.5 C 65.5 119.5 125.5 60.5 125.5 20.5 "/>
<path style="fill:none;stroke-width:1;stroke-linecap:round;stroke-linejoin:round;stroke:rgb(84.313725%,100%,15.686275%);stroke-opacity:1;stroke-miterlimit:10;" d="M 125.5 20.5 L 125.5 15.5 "/>
<path style="fill-rule:evenodd;fill:rgb(84.313725%,100%,15.686275%);fill-opacity:1;stroke-width:1;stroke-linecap:round;stroke-linejoin:round;stroke:rgb(84.313725%,100%,15.686275%);stroke-opacity:1;stroke-miterlimit:10;" d="M 125.5 10.5 L 130.5 20.5 L 125.5 17.5 L 120.5 20.5 Z M 125.5 10.5 "/>
<path style="fill:none;stroke-width:1;stroke-linecap:round;stroke-linejoin:round;stroke:rgb(87.45098%,100%,12.54902%);stroke-opacity:1;stroke-miterlimit:10;" d="M 53.5 160.5 C 53.5 120.5 101.5 59.5 101.5 20.5 "/>
<path style="fill:none;stroke-width:1;stroke-linecap:round;stroke-linejoin:round;stroke:rgb(87.45098%,100%,12.54902%);stroke-opacity:1;stroke-miterlimit:10;" d="M 101.5 20.5 L 101.5 15.5 "/>
<path style="fill-rule:evenodd;fill:rgb(87.45098%,100%,12.54902%);fill-opacity:1;stroke-width:1;stroke-linecap:round;stroke-linejoin:round;stroke:rgb(87.45098%,100%,12.54902%);stroke-opacity:1;stroke-miterlimit:10;" d="M 101.5 10.5 L 106.5 20.5 L 101.5 17.5 L 96.5 20.5 Z M 101.5 10.5 "/>
<path style="fill:none;stroke-width:1;stroke-linecap:round;stroke-linejoin:round;stroke:rgb(90.588235%,100%,9.411765%);stroke-opacity:1;stroke-miterlimit:10;" d="M 41.5 160.5 C 41.5 121.5 77.5 58.5 77.5 20.5 "/>
<path style="fill:none;stroke-width:1;stroke-linecap:round;stroke-linejoin:round;stroke:rgb(90.588235%,100%,9.411765%);stroke-opacity:1;stroke-miterlimit:10;" d="M 77.5 20.5 L 77.5 15.5 "/>
<path style="fill-rule:evenodd;fill:rgb(90.588235%,100%,9.411765%);fill-opacity:1;stroke-width:1;stroke-linecap:round;stroke-linejoin:round;stroke:rgb(90.588235%,100%,9.411765%);stroke-opacity:1;stroke-miterlimit:10;" d="M 77.5 10.5 L 82.5 20.5 L 77.5 17.5 L 72.5 20.5 Z M 77.5 10.5 "/>
<path style="fill:none;stroke-width:1;stroke-linecap:round;stroke-linejoin:round;stroke:rgb(93.72549%,100%,6.27451%);stroke-opacity:1;stroke-miterlimit:10;" d="M 29.5 160.5 C 29.5 122.5 53.5 57.5 53.5 20.5 "/>
<path style="fill:none;stroke-width:1;stroke-linecap:round;stroke-linejoin:round;stroke:rgb(93.72549%,100%,6.27451%);stroke-opacity:1;stroke-miterlimit:10;" d="M 53.5 20.5 L 53.5 15.5 "/>
<path style="fill-rule:evenodd;fill:rgb(93.72549%,100%,6.27451%);fill-opacity:1;stroke-width:1;stroke-linecap:round;stroke-linejoin:round;stroke:rgb(93.72549%,100%,6.27451%);stroke-opacity:1;stroke-miterlimit:10;" d="M 53.5 10.5 L 58.5 20.5 L 53.5 17.5 L 48.5 20.5 Z M 53.5 10.5 "/>
<path style="fill:none;stroke-width:1;stroke-linecap:round;stroke-linejoin:round;stroke:rgb(96.862745%,100%,3.137255%);stroke-opacity:1;stroke-miterlimit:10;" d="M 17.5 160.5 C 17.5 122.5 28.5 57.5 29.5 20.5 "/>
<path style="fill:none;stroke-width:1;stroke-linecap:round;stroke-linejoin:round;stroke:rgb(96.862745%,100%,3.137255%);stroke-opacity:1;stroke-miterlimit:10;" d="M 29.5 20.5 L 29.5 15.5 "/>
<path style="fill-rule:evenodd;fill:rgb(96.862745%,100%,3.137255%);fill-opacity:1;stroke-width:1;stroke-linecap:round;stroke-linejoin:round;stroke:rgb(96.862745%,100%,3.137255%);stroke-opacity:1;stroke-miterlimit:10;" d="M 29.5 10.5 L 34.5 20.5 L 29.5 17.5 L 24.5 20.5 Z M 29.5 10.5 "/>
<path style="fill:none;stroke-width:1;stroke-linecap:round;stroke-linejoin:round;stroke:rgb(100%,100%,0%);stroke-opacity:1;stroke-miterlimit:10;" d="M 5.5 160.5 C 5.5 122.5 4.5 57.5 4.5 20.5 "/>
<path style="fill:none;stroke-width:1;stroke-linecap:round;stroke-linejoin:round;stroke:rgb(100%,100%,0%);stroke-opacity:1;stroke-miterlimit:10;" d="M 4.5 20.5 L 4.5 15.5 "/>
<path style="fill-rule:evenodd;fill:rgb(100%,100%,0%);fill-opacity:1;stroke-width:1;stroke-linecap:round;stroke-linejoin:round;stroke:rgb(100%,100%,0%);stroke-opacity:1;stroke-miterlimit:10;" d="M 5.5 10.5 L 10.5 20.5 L 4.5 17.5 L -0.5 20.5 Z M 5.5 10.5 "/>
</g>
</svg>
